<svg xmlns="http://www.w3.org/2000/svg" viewBox="0 0 142 50"><path d="m47.06 38.234c-7.8803 0-13.587-5.6385-13.587-13.315 0-7.6765 5.7064-13.315 13.655-13.315 6.3857 0 11.481 3.8042 12.704 9.6465h-4.9591c-1.1549-3.2608-4.144-5.1629-7.7444-5.1629-4.8912 0-8.6275 3.6004-8.6275 8.8313 0 5.2308 3.8042 8.8992 8.6275 8.8992 3.7363 0 6.7254-2.038 7.8123-5.6384h4.9591c-1.2228 6.1819-6.3178 10.054-12.839 10.054z"/><path d="m80.755 28.384c0 0.5434-0.068 1.019-0.1359 1.4945h-14.13c0.1359 2.7173 2.3777 4.4836 5.1629 4.4836 1.9021 0 3.3967-0.7473 4.2798-2.3097h4.5515c-1.2228 3.8722-4.7553 6.2498-9.171 6.2498-6.1139 0-9.3068-4.6194-9.3068-9.5106 0-4.9592 3.3287-9.5786 9.4427-9.5786 5.5026 0 9.3069 3.8042 9.3069 9.171zm-4.4836-1.4946c-0.2718-2.5814-2.5815-4.008-4.8912-4.008-2.1739 0-4.4157 1.2228-4.8233 4.008h9.7145z"/><path d="m86.122 10.925c1.4945 0 2.6494 1.1549 2.6494 2.6494 0 1.5625-1.1549 2.7174-2.6494 2.7174-1.5625 0-2.7173-1.1549-2.7173-2.7174 0-1.5624 1.1548-2.6494 2.7173-2.6494zm-2.2418 8.6955h4.4836v18.274h-4.4836v-18.274z"/><path d="m97.399 11.061v10.869c1.2907-1.6304 3.1933-2.7173 6.2503-2.7173 5.095 0 8.967 3.8722 8.967 9.4427 0 5.5026-3.872 9.5786-9.103 9.5786-3.057 0-4.9594-1.1549-6.2502-2.7173l-0.4755 2.3097h-3.8722v-26.766h4.4836zm0 17.595c0 3.057 2.2418 5.6385 5.4343 5.6385 3.261 0 5.367-2.5815 5.367-5.6385 0-3.1249-2.174-5.5026-5.367-5.5026-3.1925 0-5.4343 2.3777-5.4343 5.5026z"/><path d="m121.86 38.234c-3.465 0-6.794-1.6983-6.794-5.4347 0-4.3477 3.669-5.8422 7.609-5.8422h5.095v-0.8152c0-2.1739-1.766-3.1929-3.804-3.1929-1.631 0-3.397 0.6793-3.737 2.3777h-4.28c0.476-4.2798 4.28-6.1819 8.22-6.1819 4.552 0 8.017 2.3097 8.017 7.2009v6.5895c0 1.019 0.475 1.6304 1.426 1.6304 0.136 0 0.204 0 0.34-0.0679v3.5325c-0.544 0.0679-1.087 0.1358-1.631 0.1358-1.97 0-3.804-0.6113-4.279-2.9211-1.359 2.106-3.669 2.9891-6.182 2.9891zm1.29-8.3558c-1.766 0-3.396 0.6114-3.396 2.4456 0 1.6983 1.494 2.3777 3.125 2.3777 2.853 0 4.823-1.7663 4.891-4.2798v-0.5435h-4.62z"/><path d="m141.28 11.061v26.834h-4.484v-26.834h4.484z"/><path d="m21.653 24.987c0-12.228 7.3367-17.459 7.3367-20.448 0-4.0081-4.4835-3.8043-4.4835-3.8043-13.519 0-23.573 11.141-23.573 24.252 0 13.451 10.054 24.32 24.184 24.32 2.3097 0 3.8721-1.6983 3.8721-3.8042 0-3.1929-7.3367-8.4917-7.3367-20.516z" fill="#00A096"/></svg>
